<svg xmlns="http://www.w3.org/2000/svg" viewBox="0 0 512 512">
  <!-- Fondo -->
  <rect width="512" height="512" rx="80" fill="#085041"/>
  <!-- Libro abierto -->
  <path d="M256 140 C220 140 160 150 130 170 L130 370 C160 352 220 344 256 344 C292 344 352 352 382 370 L382 170 C352 150 292 140 256 140Z" fill="none" stroke="#5dcaa5" stroke-width="18" stroke-linejoin="round"/>
  <line x1="256" y1="140" x2="256" y2="344" stroke="#5dcaa5" stroke-width="18"/>
  <!-- Líneas de texto izquierda -->
  <line x1="152" y1="210" x2="240" y2="202" stroke="#9fe1cb" stroke-width="10" stroke-linecap="round"/>
  <line x1="152" y1="240" x2="240" y2="234" stroke="#9fe1cb" stroke-width="10" stroke-linecap="round"/>
  <line x1="152" y1="270" x2="240" y2="266" stroke="#9fe1cb" stroke-width="10" stroke-linecap="round"/>
  <line x1="152" y1="300" x2="240" y2="298" stroke="#9fe1cb" stroke-width="10" stroke-linecap="round"/>
  <!-- Líneas de texto derecha -->
  <line x1="272" y1="202" x2="360" y2="210" stroke="#9fe1cb" stroke-width="10" stroke-linecap="round"/>
  <line x1="272" y1="234" x2="360" y2="240" stroke="#9fe1cb" stroke-width="10" stroke-linecap="round"/>
  <line x1="272" y1="266" x2="360" y2="270" stroke="#9fe1cb" stroke-width="10" stroke-linecap="round"/>
  <line x1="272" y1="298" x2="360" y2="300" stroke="#9fe1cb" stroke-width="10" stroke-linecap="round"/>
  <!-- Texto SG abajo -->
  <text x="256" y="430" font-family="Arial, sans-serif" font-weight="bold" font-size="72" fill="#ef9f27" text-anchor="middle">SG</text>
</svg>
